<mxfile host="app.diagrams.net" modified="2023-08-27T21:07:05.195Z" agent="Mozilla/5.0 (Windows NT 10.0; Win64; x64) AppleWebKit/537.36 (KHTML, like Gecko) Chrome/116.0.0.0 Safari/537.36" version="21.6.9" etag="3eDxgd51k0TSnHslMkN7" type="github">
  <diagram name="PÃ¡gina-1" id="yFQt1RFacJG_5GjwldIG">
    <mxGraphModel>
      <root>
        <mxCell id="0" />
        <mxCell id="1" parent="0" />
      </root>
    </mxGraphModel>
  </diagram>
</mxfile>
